<?xml version="1.0" standalone="no"?>
<!DOCTYPE svg PUBLIC "-//W3C//DTD SVG 20010904//EN" "http://www.w3.org/TR/2001/REC-SVG-20010904/DTD/svg10.dtd">
<svg version="1.0" xmlns="http://www.w3.org/2000/svg" width="1005.000000pt" height="1280.000000pt" viewBox="0 0 1005.000000 1280.000000" preserveAspectRatio="xMidYMid meet">
    <metadata>
Created by potrace 1.15, written by Peter Selinger 2001-2017
</metadata>
    <g transform="translate(0.000000,1280.000000) scale(0.100000,-0.100000)" fill="rgb(242, 219, 179)" stroke="none">
        <path d="M8945 12785 c-311 -37 -707 -150 -1080 -307 -284 -120 -736 -356
-1053 -550 -153 -94 -515 -333 -617 -407 -38 -28 -115 -84 -170 -124 -55 -39
-107 -78 -115 -85 -8 -7 -38 -30 -66 -50 -89 -64 -300 -230 -313 -246 -11 -13
-35 -16 -110 -16 -190 -1 -349 -54 -541 -183 -158 -106 -354 -305 -459 -467
-72 -110 -120 -166 -186 -215 -145 -108 -346 -298 -460 -435 -42 -50 -120
-163 -165 -239 -29 -50 -120 -255 -120 -271 0 -5 -4 -20 -10 -34 -8 -23 -12
-24 -38 -15 -24 8 -31 18 -41 62 -18 80 -40 109 -92 122 -30 8 -44 16 -43 27
1 9 23 48 50 88 68 102 89 213 46 247 -13 11 -13 19 -2 59 25 89 10 181 -31
191 -14 4 -18 10 -12 22 13 28 15 191 3 222 -20 48 -37 55 -70 30 -29 -21 -30
-21 -30 -2 0 11 5 43 11 72 12 57 0 163 -28 252 -17 52 -33 62 -33 20 0 -30
-42 -183 -50 -183 -3 0 -18 29 -33 64 -28 62 -28 63 -16 152 7 51 9 133 6 191
-5 87 -11 113 -36 167 -36 74 -55 94 -74 77 -20 -16 -27 -3 -27 53 0 28 -9 84
-19 123 -20 77 -78 210 -87 200 -5 -5 -23 -82 -49 -217 -28 -143 -107 -413
-177 -605 -94 -259 -99 -268 -149 -321 -42 -45 -86 -120 -103 -176 -5 -17 -7
-17 -35 0 -29 16 -30 16 -56 -8 -27 -25 -67 -102 -79 -150 -3 -14 -11 -133
-16 -266 -13 -276 1 -473 44 -617 13 -45 31 -136 41 -202 9 -66 24 -145 33
-175 14 -47 17 -110 17 -415 0 -344 -2 -367 -27 -525 -15 -91 -34 -185 -41
-210 l-14 -45 -62 -3 c-36 -2 -61 1 -61 7 0 12 -63 31 -105 31 -22 0 -26 3
-15 10 11 7 9 11 -13 19 -16 6 -38 11 -50 11 -22 0 -62 19 -42 20 6 0 3 5 -5
10 -8 5 -36 10 -61 10 -25 0 -54 7 -65 15 -10 8 -36 15 -56 15 -27 0 -38 4
-38 15 0 11 -11 15 -43 15 -23 0 -52 7 -64 15 -11 8 -39 17 -62 21 -23 4 -59
15 -79 25 -20 11 -47 19 -60 19 -13 0 -21 4 -18 9 7 10 -32 15 -239 30 -77 6
-159 16 -183 22 -29 8 -87 10 -175 6 -148 -7 -151 -8 -436 -141 -13 -6 -55
-41 -92 -78 -55 -55 -78 -87 -118 -170 -78 -164 -85 -202 -47 -282 l25 -52
-20 -59 c-58 -176 -47 -468 22 -597 75 -141 154 -234 257 -301 88 -58 252
-124 252 -102 0 3 -12 24 -26 47 -32 50 -84 159 -84 174 0 8 36 10 128 6 218
-8 283 6 466 105 15 9 57 18 92 21 64 5 64 5 109 -37 58 -53 154 -115 282
-180 88 -45 110 -61 152 -114 61 -77 218 -230 292 -285 42 -32 64 -58 93 -113
46 -90 179 -290 254 -384 31 -38 113 -128 182 -200 117 -120 132 -139 192
-255 58 -111 145 -302 176 -385 33 -90 72 -246 83 -333 14 -108 9 -138 -19
-127 -9 4 -37 10 -62 12 -39 4 -51 1 -77 -21 -23 -19 -42 -26 -74 -26 -25 0
-57 -8 -75 -19 -63 -39 -198 -222 -235 -320 -25 -68 -30 -161 -9 -186 33 -40
141 -60 169 -32 10 10 14 8 23 -8 21 -36 57 -65 81 -65 54 0 172 82 203 142
21 41 18 42 -28 9 -57 -42 -65 -31 -50 61 14 81 74 213 104 229 10 6 31 9 46
7 31 -3 31 -9 14 -176 -10 -95 -19 -117 -67 -165 -71 -70 36 -34 114 39 32 30
61 54 64 54 2 0 8 -23 11 -52 4 -28 12 -60 17 -70 21 -39 110 -63 165 -45 17
6 23 0 38 -33 20 -47 39 -59 104 -67 47 -5 49 -4 122 57 41 34 97 72 125 84
62 28 199 147 216 189 11 25 10 45 -5 117 l-18 88 69 95 c38 52 89 133 113
180 35 69 46 84 57 75 30 -25 156 -192 255 -338 182 -267 241 -367 383 -645
76 -148 146 -281 155 -295 10 -14 32 -54 50 -90 92 -182 295 -521 444 -739 39
-57 76 -111 81 -120 6 -8 27 -42 48 -74 20 -32 37 -61 37 -63 0 -10 204 -317
275 -414 94 -129 204 -260 280 -335 99 -97 248 -225 263 -225 6 0 15 8 21 17
11 21 -6 34 207 -150 196 -169 235 -198 322 -242 74 -37 142 -55 142 -39 0 19
-72 113 -167 220 -201 224 -364 435 -531 686 -130 194 -151 231 -183 333 -16
49 -34 103 -39 119 -5 16 -8 31 -6 33 2 2 54 -72 116 -164 101 -150 248 -355
410 -573 30 -41 109 -142 175 -224 66 -82 138 -172 160 -200 21 -28 44 -55 50
-61 6 -5 47 -52 90 -102 43 -51 81 -91 83 -88 5 4 -30 66 -83 150 -76 120
-215 346 -215 351 0 2 109 -105 243 -240 308 -310 475 -444 667 -535 47 -22
96 -43 110 -46 16 -5 -93 112 -305 326 -329 332 -396 404 -556 593 -117 138
-313 385 -359 452 -8 12 -43 60 -78 106 -169 223 -326 456 -557 828 -12 19
-41 69 -65 110 -24 41 -57 98 -73 125 -168 279 -517 974 -517 1028 0 6 -7 24
-15 40 -7 15 -35 76 -61 135 -78 180 -144 332 -186 432 -43 100 -60 141 -101
230 -54 119 -155 356 -162 379 -6 21 -5 23 11 17 117 -47 204 -47 204 0 0 7 5
25 10 40 10 25 12 26 29 10 48 -43 218 -89 290 -79 l34 6 -7 128 c-6 111 -5
130 8 135 8 3 50 -5 93 -19 107 -34 186 -48 195 -34 4 6 4 71 1 143 l-6 132
87 -5 87 -6 -7 154 -7 154 74 -3 74 -3 -3 145 c-3 80 0 146 4 146 5 -1 34 -9
64 -20 63 -22 136 -26 142 -7 2 6 0 113 -3 237 -5 199 -8 232 -28 284 -12 32
-20 61 -17 63 3 3 36 -15 73 -39 108 -71 154 -95 222 -117 68 -22 136 -27 146
-11 3 5 -1 49 -9 97 -8 48 -18 124 -21 168 -3 44 -8 106 -11 137 l-5 58 28
-11 c15 -5 50 -21 77 -35 97 -49 286 -85 286 -54 0 6 -9 50 -19 98 -11 48 -21
123 -23 168 l-3 80 103 11 c57 6 106 14 109 17 3 3 -2 41 -11 83 -9 43 -23
131 -31 195 -7 64 -21 131 -30 148 -22 43 -13 60 29 60 48 0 144 37 156 60 6
10 10 53 10 95 0 101 -34 201 -105 303 -51 74 -238 267 -317 326 -21 16 -38
32 -38 36 0 4 44 -6 98 -21 135 -39 377 -79 478 -79 94 0 209 22 267 52 52 26
115 84 149 137 31 50 36 82 13 101 -8 7 -15 16 -15 20 0 5 29 24 64 44 74 42
170 125 192 168 21 41 12 59 -63 128 -36 33 -64 61 -62 63 2 2 40 13 83 26
137 38 218 85 294 166 67 72 122 162 122 201 0 13 -23 43 -56 74 -62 59 -62
57 23 90 149 56 313 192 378 313 29 55 29 56 10 77 -11 12 -48 37 -82 57 -35
19 -63 37 -63 39 0 2 46 27 103 55 136 68 251 145 329 222 63 61 128 141 128
159 0 37 -349 95 -632 105 -93 3 -168 10 -168 14 0 15 40 33 410 181 418 168
725 325 1026 524 137 91 143 87 -121 81 -214 -4 -520 -32 -635 -57 -25 -5 -67
-12 -95 -15 l-50 -5 70 35 c39 19 90 42 115 51 80 31 323 149 422 206 134 78
278 188 349 268 61 68 119 148 119 164 0 8 -239 1 -315 -11 l-40 -6 98 93 c97
92 162 172 150 184 -10 10 -369 7 -463 -4 -47 -6 -129 -18 -182 -29 -54 -10
-98 -15 -98 -10 0 4 28 24 63 45 65 39 200 131 245 167 46 36 242 235 242 245
0 13 -32 20 -147 32 -54 5 -117 13 -141 16 l-42 6 46 55 c28 33 43 58 37 64
-28 28 -369 36 -558 14z m-5379 -8397 c37 -33 132 -236 154 -328 11 -47 20
-96 20 -109 0 -22 -2 -23 -42 -17 -121 20 -124 19 -171 -9 -30 -17 -63 -27
-95 -29 -27 -1 -61 -9 -75 -19 -14 -9 -62 -66 -108 -127 -45 -60 -86 -110 -90
-110 -22 0 -32 100 -15 141 8 19 22 66 30 103 20 86 26 94 41 66 12 -23 13
-22 35 26 40 89 99 281 116 376 8 51 17 98 19 105 5 15 149 -40 181 -69z m158
-682 c4 -19 -1 -63 -10 -102 -8 -38 -13 -85 -10 -105 4 -23 1 -42 -9 -55 -14
-18 -14 -18 -15 6 -1 25 -1 25 -32 -10 -59 -65 -118 -90 -132 -54 -9 23 10 94
55 209 47 120 67 145 113 145 30 0 34 -3 40 -34z" />
    </g>
</svg>